# xmcd
#
# Track frame offsets:
#	150
#	10242
#	20850
#	45002
#	60637
#	73441
#	87054
#	106246
#	123498
#	135336
#	140071
#	154192
#	169171
#	177743
#	189836
#	200171
#	206947
#
# Disc length: 2837 seconds
#
# Revision: 1
# Processed by: cddbd v1.5.1PL2 Copyright (c) Steve Scherf et al.
# Submitted via: audiograbber 1.83.01
#
DISCID=fa0b1311
DTITLE=Non stop mulatós 3 - Fáj a szivem
DYEAR=1900
DGENRE=Pop-Folk
TTITLE0=Pikáns Mulatós - Öregapád faszandálbam
TTITLE1=Sörös Jancsi - Kopogós a csizmám
TTITLE2=Mc Hawer - Kék a szeme
TTITLE3=Rózsa Ignác - Piros lett a pipacs virága
TTITLE4=Bangó Margit - Eltörött a kutam géme
TTITLE5=Koós János - Nyisd ki babám
TTITLE6=Csóré Jenõ - Ha volna nékem tintám tollam
TTITLE7=Horváth Pista - Fáj a szivem jaj de nagyon beteg
TTITLE8=Gaál Gabriella - Eladom a lovamat
TTITLE9=Csóré Jenõ - Falu végén meszeletlen
TTITLE10=Kadlott Karcsi - Szép kislány az Ica
TTITLE11=Kaczor Feri - Csúnya balhé
TTITLE12=Feri meg az anyósa - Magas a kaszárnya
TTITLE13=3+2 - Kondorosi csárda
TTITLE14=Csocsesz - Minek a szõke énnékem
TTITLE15=Albercky Sándor - Vakuljon meg a lovam
TTITLE16=Pikáns Mulatós - Ejnye kedves feleséem
EXTD=
EXTT0=
EXTT1=
EXTT2=
EXTT3=
EXTT4=
EXTT5=
EXTT6=
EXTT7=
EXTT8=
EXTT9=
EXTT10=
EXTT11=
EXTT12=
EXTT13=
EXTT14=
EXTT15=
EXTT16=
PLAYORDER=
